<svg width="26" height="26" viewBox="0 0 26 26" fill="none" xmlns="http://www.w3.org/2000/svg">
<path fill-rule="evenodd" clip-rule="evenodd" d="M17.5963 16.445C17.914 16.7619 17.914 17.2819 17.5963 17.5988C17.2794 17.9157 16.7643 17.9157 16.4466 17.5988L13.0049 14.1538L9.53874 17.6231C9.21862 17.94 8.70027 17.94 8.38015 17.6231C8.06083 17.2981 8.06083 16.7781 8.38015 16.4613L11.8463 12.9919L8.4045 9.55501C8.08681 9.23813 8.08681 8.7181 8.4045 8.40122C8.72056 8.08435 9.23568 8.08435 9.55337 8.40122L12.9951 11.8462L16.4872 8.35252C16.8074 8.03565 17.3249 8.03565 17.645 8.35252C17.9644 8.67752 17.9644 9.18934 17.645 9.51434L14.1537 13.0081L17.5963 16.445ZM13 0C5.81994 0 0 5.8175 0 13C0 20.1825 5.81994 26 13 26C20.1801 26 26 20.1825 26 13C26 5.8175 20.1801 0 13 0Z" fill="white"/>
</svg>