<svg width="28" height="28" viewBox="0 0 28 28" fill="none" xmlns="http://www.w3.org/2000/svg">
<path fill-rule="evenodd" clip-rule="evenodd" d="M15.3346 10.0013C15.3346 9.26493 14.7377 8.66797 14.0013 8.66797C13.2649 8.66797 12.668 9.26493 12.668 10.0013V12.668H10.0013C9.26493 12.668 8.66797 13.2649 8.66797 14.0013C8.66797 14.7377 9.26493 15.3346 10.0013 15.3346H12.668V18.0013C12.668 18.7377 13.2649 19.3346 14.0013 19.3346C14.7377 19.3346 15.3346 18.7377 15.3346 18.0013V15.3346H18.0013C18.7377 15.3346 19.3346 14.7377 19.3346 14.0013C19.3346 13.2649 18.7377 12.668 18.0013 12.668H15.3346V10.0013ZM0.667969 14.0013C0.667969 6.6375 6.6375 0.667969 14.0013 0.667969C21.365 0.667969 27.3346 6.6375 27.3346 14.0013C27.3346 21.365 21.365 27.3346 14.0013 27.3346C6.6375 27.3346 0.667969 21.365 0.667969 14.0013Z" fill="#FCAB64"/>
</svg>
