<svg width="49" height="49" viewBox="0 0 49 49" fill="none" xmlns="http://www.w3.org/2000/svg">
<path d="M21.9583 16.875L14.3333 24.5L21.9583 16.875ZM14.3333 24.5L21.9583 32.125L14.3333 24.5ZM14.3333 24.5H34.6667H14.3333ZM47.375 24.5C47.375 37.1336 37.1336 47.375 24.5 47.375C11.8665 47.375 1.625 37.1336 1.625 24.5C1.625 11.8665 11.8665 1.625 24.5 1.625C37.1336 1.625 47.375 11.8665 47.375 24.5Z" fill="white"/>
<path d="M21.9583 16.875L14.3333 24.5M14.3333 24.5L21.9583 32.125M14.3333 24.5H34.6667M47.375 24.5C47.375 37.1336 37.1336 47.375 24.5 47.375C11.8665 47.375 1.625 37.1336 1.625 24.5C1.625 11.8665 11.8665 1.625 24.5 1.625C37.1336 1.625 47.375 11.8665 47.375 24.5Z" stroke="#FCAB64" stroke-width="3" stroke-linecap="round" stroke-linejoin="round"/>
</svg>
