<svg width="49" height="49" viewBox="0 0 49 49" fill="none" xmlns="http://www.w3.org/2000/svg">
<path d="M27.0417 32.125L34.6667 24.5L27.0417 32.125ZM34.6667 24.5L27.0417 16.875L34.6667 24.5ZM34.6667 24.5H14.3333H34.6667ZM47.375 24.5C47.375 37.1336 37.1336 47.375 24.5 47.375C11.8665 47.375 1.625 37.1336 1.625 24.5C1.625 11.8665 11.8665 1.625 24.5 1.625C37.1336 1.625 47.375 11.8665 47.375 24.5Z" fill="white"/>
<path d="M27.0417 32.125L34.6667 24.5M34.6667 24.5L27.0417 16.875M34.6667 24.5H14.3333M47.375 24.5C47.375 37.1336 37.1336 47.375 24.5 47.375C11.8665 47.375 1.625 37.1336 1.625 24.5C1.625 11.8665 11.8665 1.625 24.5 1.625C37.1336 1.625 47.375 11.8665 47.375 24.5Z" stroke="#FCAB64" stroke-width="3" stroke-linecap="round" stroke-linejoin="round"/>
</svg>
